<svg width="16" height="16" viewBox="0 0 16 16" fill="none" xmlns="http://www.w3.org/2000/svg">
<path d="M6.00002 8L7.33336 9.33333L10 6.66667M5.22336 3.13133C5.70156 3.09317 6.15554 2.90513 6.52069 2.594C6.9333 2.24218 7.45778 2.04893 8.00002 2.04893C8.54226 2.04893 9.06675 2.24218 9.47936 2.594C9.8445 2.90513 10.2985 3.09317 10.7767 3.13133C11.3172 3.17433 11.8247 3.40855 12.2081 3.79195C12.5915 4.17535 12.8257 4.68283 12.8687 5.22333C12.9069 5.70154 13.0949 6.15552 13.406 6.52067C13.7578 6.93327 13.9511 7.45776 13.9511 8C13.9511 8.54224 13.7578 9.06673 13.406 9.47933C13.0949 9.84448 12.9069 10.2985 12.8687 10.7767C12.8257 11.3172 12.5915 11.8247 12.2081 12.2081C11.8247 12.5915 11.3172 12.8257 10.7767 12.8687C10.2985 12.9068 9.8445 13.0949 9.47936 13.406C9.06675 13.7578 8.54226 13.9511 8.00002 13.9511C7.45778 13.9511 6.9333 13.7578 6.52069 13.406C6.15554 13.0949 5.70156 12.9068 5.22336 12.8687C4.68286 12.8257 4.17537 12.5915 3.79197 12.2081C3.40857 11.8247 3.17436 11.3172 3.13136 10.7767C3.09319 10.2985 2.90516 9.84448 2.59402 9.47933C2.2422 9.06673 2.04895 8.54224 2.04895 8C2.04895 7.45776 2.2422 6.93327 2.59402 6.52067C2.90516 6.15552 3.09319 5.70154 3.13136 5.22333C3.17436 4.68283 3.40857 4.17535 3.79197 3.79195C4.17537 3.40855 4.68286 3.17433 5.22336 3.13133Z" stroke="#03A9F4" stroke-width="2" stroke-linecap="round" stroke-linejoin="round"/>
</svg>
